<mxfile host="app.diagrams.net" modified="2024-01-24T08:14:35.514Z" agent="Mozilla/5.0 (Windows NT 10.0; Win64; x64) AppleWebKit/537.36 (KHTML, like Gecko) Chrome/120.0.0.0 Safari/537.36" version="23.0.0" etag="vI_ozPNCY6uXyxc9yk2F" type="github">
  <diagram name="第 1 页" id="7sbHDK_0Oev5_SG6XOwi">
    <mxGraphModel>
      <root>
        <mxCell id="0" />
        <mxCell id="1" parent="0" />
      </root>
    </mxGraphModel>
  </diagram>
</mxfile>
